<?xml version="1.0" encoding="UTF-8"?>
<svg xmlns="http://www.w3.org/2000/svg" width="512" height="512" viewBox="0 0 512 512">
  <defs>
    <linearGradient id="g" x1="0" x2="0" y1="0" y2="1">
      <stop offset="0%" stop-color="#0f172a"/>
      <stop offset="100%" stop-color="#1e293b"/>
    </linearGradient>
    <filter id="shadow" x="-20%" y="-20%" width="140%" height="140%">
      <feDropShadow dx="0" dy="6" stdDeviation="10" flood-opacity="0.35"/>
    </filter>
  </defs>

  <!-- Background -->
  <rect width="512" height="512" rx="110" fill="url(#g)"/>

  <!-- Checker piece (draughts) -->
  <g filter="url(#shadow)" transform="translate(256 270)">
    <!-- base ring -->
    <circle r="130" fill="#0b1220"/>
    <circle r="120" fill="#111827"/>
    <!-- glossy top -->
    <circle r="108" fill="#e5e7eb"/>
    <!-- inner ridges -->
    <circle r="92" fill="#d1d5db"/>
    <circle r="76" fill="#e5e7eb"/>
    <circle r="60" fill="#d1d5db"/>
  </g>

  <!-- subtle highlight -->
  <ellipse cx="256" cy="160" rx="160" ry="60" fill="#ffffff" opacity="0.08"/>

  <!-- small board squares accent -->
  <g transform="translate(368 144) scale(0.85)" opacity="0.18">
    <rect x="0" y="0" width="36" height="36" fill="#93c5fd"/>
    <rect x="36" y="0" width="36" height="36" fill="#1f2937"/>
    <rect x="0" y="36" width="36" height="36" fill="#1f2937"/>
    <rect x="36" y="36" width="36" height="36" fill="#93c5fd"/>
  </g>

  <!-- brand glyph: minimal crown for kinged piece -->
  <g transform="translate(256 245) scale(0.8)">
    <path d="M-70 0 L-40 -40 L0 -10 L40 -40 L70 0 L60 50 L-60 50 Z" fill="#0f172a" opacity="0.18"/>
    <path d="M-60 -4 L-35 -34 L0 -8 L35 -34 L60 -4 L52 42 L-52 42 Z" fill="#111827"/>
    <rect x="-50" y="28" width="100" height="10" rx="5" fill="#0b1220"/>
  </g>
</svg>

